{
	"patcher" : 	{
		"fileversion" : 1,
		"appversion" : 		{
			"major" : 8,
			"minor" : 5,
			"revision" : 3,
			"architecture" : "x64",
			"modernui" : 1
		}
,
		"classnamespace" : "box",
		"rect" : [ 539.0, 87.0, 867.0, 779.0 ],
		"bglocked" : 0,
		"openinpresentation" : 0,
		"default_fontsize" : 12.0,
		"default_fontface" : 0,
		"default_fontname" : "Arial",
		"gridonopen" : 1,
		"gridsize" : [ 15.0, 15.0 ],
		"gridsnaponopen" : 1,
		"objectsnaponopen" : 1,
		"statusbarvisible" : 2,
		"toolbarvisible" : 1,
		"lefttoolbarpinned" : 0,
		"toptoolbarpinned" : 0,
		"righttoolbarpinned" : 0,
		"bottomtoolbarpinned" : 0,
		"toolbars_unpinned_last_save" : 0,
		"tallnewobj" : 0,
		"boxanimatetime" : 200,
		"enablehscroll" : 1,
		"enablevscroll" : 1,
		"devicewidth" : 0.0,
		"description" : "",
		"digest" : "",
		"tags" : "",
		"style" : "",
		"subpatcher_template" : "",
		"assistshowspatchername" : 0,
		"boxes" : [ 			{
				"box" : 				{
					"comment" : "",
					"id" : "obj-21",
					"index" : 2,
					"maxclass" : "inlet",
					"numinlets" : 0,
					"numoutlets" : 1,
					"outlettype" : [ "" ],
					"patching_rect" : [ 40.109999999999999, 859.999999046325684, 30.0, 30.0 ],
					"tricolor" : [ 0.427450980392157, 0.843137254901961, 1.0, 1.0 ]
				}

			}
, 			{
				"box" : 				{
					"bgcolor" : [ 0.427450980392157, 0.843137254901961, 1.0, 1.0 ],
					"id" : "obj-154",
					"linecount" : 2,
					"maxclass" : "comment",
					"numinlets" : 1,
					"numoutlets" : 0,
					"patching_rect" : [ 238.943366587162018, 962.5, 107.223300158977509, 33.0 ],
					"text" : "fade it out when rains loud",
					"textcolor" : [ 0.07843137254902, 0.07843137254902, 0.07843137254902, 1.0 ]
				}

			}
, 			{
				"box" : 				{
					"comment" : "",
					"id" : "obj-20",
					"index" : 3,
					"maxclass" : "inlet",
					"numinlets" : 0,
					"numoutlets" : 1,
					"outlettype" : [ "" ],
					"patching_rect" : [ 101.109999999999999, 859.999999046325684, 30.0, 30.0 ],
					"tricolor" : [ 0.427450980392157, 0.843137254901961, 1.0, 1.0 ]
				}

			}
, 			{
				"box" : 				{
					"id" : "obj-19",
					"maxclass" : "newobj",
					"numinlets" : 1,
					"numoutlets" : 1,
					"outlettype" : [ "" ],
					"patching_rect" : [ 246.166666746139526, 859.999999046325684, 77.0, 22.0 ],
					"text" : "loadmess 53"
				}

			}
, 			{
				"box" : 				{
					"bgcolor" : [ 0.873147666454315, 0.873318672180176, 0.873133420944214, 1.0 ],
					"id" : "obj-18",
					"knobcolor" : [ 0.427450980392157, 0.843137254901961, 1.0, 1.0 ],
					"maxclass" : "gain~",
					"multichannelvariant" : 0,
					"numinlets" : 1,
					"numoutlets" : 2,
					"outlettype" : [ "signal", "" ],
					"parameter_enable" : 0,
					"patching_rect" : [ 191.000000092198718, 974.229183673858643, 22.0, 140.0 ],
					"size" : 100
				}

			}
, 			{
				"box" : 				{
					"fontname" : "Arial",
					"fontsize" : 13.0,
					"id" : "obj-38",
					"maxclass" : "newobj",
					"numinlets" : 3,
					"numoutlets" : 2,
					"outlettype" : [ "", "bang" ],
					"patching_rect" : [ 398.666666746139526, 190.666671276092529, 95.0, 23.0 ],
					"text" : "line 0."
				}

			}
, 			{
				"box" : 				{
					"fontname" : "Arial",
					"fontsize" : 13.0,
					"id" : "obj-37",
					"maxclass" : "message",
					"numinlets" : 2,
					"numoutlets" : 1,
					"outlettype" : [ "" ],
					"patching_rect" : [ 398.666666746139526, 157.000001549720764, 92.0, 23.0 ],
					"text" : "5500, 3500 10"
				}

			}
, 			{
				"box" : 				{
					"comment" : "",
					"id" : "obj-36",
					"index" : 6,
					"maxclass" : "inlet",
					"numinlets" : 0,
					"numoutlets" : 1,
					"outlettype" : [ "bang" ],
					"patching_rect" : [ 398.666666746139526, 104.0, 30.0, 30.0 ],
					"tricolor" : [ 0.427450980392157, 0.843137254901961, 1.0, 1.0 ]
				}

			}
, 			{
				"box" : 				{
					"id" : "obj-33",
					"maxclass" : "message",
					"numinlets" : 2,
					"numoutlets" : 1,
					"outlettype" : [ "" ],
					"patching_rect" : [ 36.666666746139526, 735.666671276092529, 29.5, 22.0 ],
					"text" : "1"
				}

			}
, 			{
				"box" : 				{
					"blinkcolor" : [ 0.427450980392157, 0.843137254901961, 1.0, 1.0 ],
					"id" : "obj-31",
					"maxclass" : "button",
					"numinlets" : 1,
					"numoutlets" : 1,
					"outlettype" : [ "bang" ],
					"parameter_enable" : 0,
					"patching_rect" : [ 36.666666746139526, 691.666671276092529, 24.0, 24.0 ]
				}

			}
, 			{
				"box" : 				{
					"comment" : "",
					"id" : "obj-29",
					"index" : 1,
					"maxclass" : "inlet",
					"numinlets" : 0,
					"numoutlets" : 1,
					"outlettype" : [ "bang" ],
					"patching_rect" : [ 36.666666746139526, 636.666670799255371, 30.0, 30.0 ],
					"tricolor" : [ 0.427450980392157, 0.843137254901961, 1.0, 1.0 ]
				}

			}
, 			{
				"box" : 				{
					"id" : "obj-27",
					"linecount" : 2,
					"maxclass" : "comment",
					"numinlets" : 1,
					"numoutlets" : 0,
					"patching_rect" : [ 304.941666603088379, 147.000001549720764, 79.450000286102295, 33.0 ],
					"text" : "smooth the change",
					"textcolor" : [ 0.501960784313725, 0.501960784313725, 0.501960784313725, 1.0 ]
				}

			}
, 			{
				"box" : 				{
					"comment" : "",
					"id" : "obj-25",
					"index" : 5,
					"maxclass" : "inlet",
					"numinlets" : 0,
					"numoutlets" : 1,
					"outlettype" : [ "bang" ],
					"patching_rect" : [ 182.166666746139526, 104.0, 30.0, 30.0 ],
					"tricolor" : [ 0.427450980392157, 0.843137254901961, 1.0, 1.0 ]
				}

			}
, 			{
				"box" : 				{
					"fontname" : "Arial",
					"fontsize" : 13.0,
					"id" : "obj-23",
					"maxclass" : "message",
					"numinlets" : 2,
					"numoutlets" : 1,
					"outlettype" : [ "" ],
					"patching_rect" : [ 182.166666746139526, 161.761998653411865, 92.0, 23.0 ],
					"text" : "3500, 5500 10"
				}

			}
, 			{
				"box" : 				{
					"fontname" : "Arial",
					"fontsize" : 13.0,
					"id" : "obj-24",
					"maxclass" : "newobj",
					"numinlets" : 3,
					"numoutlets" : 2,
					"outlettype" : [ "", "bang" ],
					"patching_rect" : [ 182.166666746139526, 201.666671276092529, 95.0, 23.0 ],
					"text" : "line 0."
				}

			}
, 			{
				"box" : 				{
					"comment" : "",
					"id" : "obj-2",
					"index" : 4,
					"maxclass" : "inlet",
					"numinlets" : 0,
					"numoutlets" : 1,
					"outlettype" : [ "bang" ],
					"patching_rect" : [ 119.666666746139526, 636.666670799255371, 30.0, 30.0 ],
					"tricolor" : [ 0.427450980392157, 0.843137254901961, 1.0, 1.0 ]
				}

			}
, 			{
				"box" : 				{
					"id" : "obj-12",
					"maxclass" : "comment",
					"numinlets" : 1,
					"numoutlets" : 0,
					"patching_rect" : [ 310.166666746139526, 1144.562507629394531, 45.0, 20.0 ],
					"text" : "right",
					"textcolor" : [ 0.396078431372549, 0.396078431372549, 0.396078431372549, 1.0 ]
				}

			}
, 			{
				"box" : 				{
					"id" : "obj-5",
					"maxclass" : "comment",
					"numinlets" : 1,
					"numoutlets" : 0,
					"patching_rect" : [ 116.333333400080392, 1144.562507629394531, 45.0, 20.0 ],
					"text" : "left",
					"textcolor" : [ 0.396078431372549, 0.396078431372549, 0.396078431372549, 1.0 ]
				}

			}
, 			{
				"box" : 				{
					"comment" : "",
					"id" : "obj-4",
					"index" : 2,
					"maxclass" : "outlet",
					"numinlets" : 1,
					"numoutlets" : 0,
					"patching_rect" : [ 269.666666746139526, 1134.562507629394531, 30.0, 30.0 ],
					"tricolor" : [ 0.427450980392157, 0.843137254901961, 1.0, 1.0 ]
				}

			}
, 			{
				"box" : 				{
					"comment" : "",
					"id" : "obj-3",
					"index" : 1,
					"maxclass" : "outlet",
					"numinlets" : 1,
					"numoutlets" : 0,
					"patching_rect" : [ 189.000000092198718, 1134.562507629394531, 30.0, 30.0 ],
					"tricolor" : [ 0.427450980392157, 0.843137254901961, 1.0, 1.0 ]
				}

			}
, 			{
				"box" : 				{
					"id" : "obj-9",
					"maxclass" : "newobj",
					"numinlets" : 2,
					"numoutlets" : 1,
					"outlettype" : [ "int" ],
					"patching_rect" : [ 119.666666746139526, 735.666671276092529, 59.0, 22.0 ],
					"text" : "random 5"
				}

			}
, 			{
				"box" : 				{
					"blinkcolor" : [ 0.427450980392157, 0.843137254901961, 1.0, 1.0 ],
					"id" : "obj-8",
					"maxclass" : "button",
					"numinlets" : 1,
					"numoutlets" : 1,
					"outlettype" : [ "bang" ],
					"parameter_enable" : 0,
					"patching_rect" : [ 119.666666746139526, 691.666671276092529, 24.0, 24.0 ]
				}

			}
, 			{
				"box" : 				{
					"bgcolor" : [ 1.0, 0.345098039215686, 0.298039215686275, 1.0 ],
					"id" : "obj-1",
					"linecount" : 3,
					"maxclass" : "comment",
					"numinlets" : 1,
					"numoutlets" : 0,
					"patching_rect" : [ 82.000000092198718, 800.266671359539032, 93.0, 47.0 ],
					"text" : "could do random rhythm on the phasor",
					"textcolor" : [ 0.156862745098039, 0.156862745098039, 0.156862745098039, 1.0 ]
				}

			}
, 			{
				"box" : 				{
					"id" : "obj-26",
					"maxclass" : "newobj",
					"numinlets" : 7,
					"numoutlets" : 1,
					"outlettype" : [ "signal" ],
					"patcher" : 					{
						"fileversion" : 1,
						"appversion" : 						{
							"major" : 8,
							"minor" : 5,
							"revision" : 3,
							"architecture" : "x64",
							"modernui" : 1
						}
,
						"classnamespace" : "box",
						"rect" : [ 59.0, 106.0, 640.0, 480.0 ],
						"bglocked" : 0,
						"openinpresentation" : 0,
						"default_fontsize" : 12.0,
						"default_fontface" : 0,
						"default_fontname" : "Arial",
						"gridonopen" : 1,
						"gridsize" : [ 15.0, 15.0 ],
						"gridsnaponopen" : 1,
						"objectsnaponopen" : 1,
						"statusbarvisible" : 2,
						"toolbarvisible" : 1,
						"lefttoolbarpinned" : 0,
						"toptoolbarpinned" : 0,
						"righttoolbarpinned" : 0,
						"bottomtoolbarpinned" : 0,
						"toolbars_unpinned_last_save" : 0,
						"tallnewobj" : 0,
						"boxanimatetime" : 200,
						"enablehscroll" : 1,
						"enablevscroll" : 1,
						"devicewidth" : 0.0,
						"description" : "",
						"digest" : "",
						"tags" : "",
						"style" : "",
						"subpatcher_template" : "",
						"assistshowspatchername" : 0,
						"boxes" : [ 							{
								"box" : 								{
									"id" : "obj-3",
									"maxclass" : "message",
									"numinlets" : 2,
									"numoutlets" : 1,
									"outlettype" : [ "" ],
									"patching_rect" : [ 112.543935477734067, 301.46782461553812, 29.5, 22.0 ],
									"text" : "0"
								}

							}
, 							{
								"box" : 								{
									"id" : "obj-195",
									"maxclass" : "newobj",
									"numinlets" : 1,
									"numoutlets" : 1,
									"outlettype" : [ "" ],
									"patching_rect" : [ 154.195956985156045, 301.46782461553812, 80.0, 22.0 ],
									"text" : "loadmess 88."
								}

							}
, 							{
								"box" : 								{
									"id" : "obj-145",
									"maxclass" : "comment",
									"numinlets" : 1,
									"numoutlets" : 0,
									"patching_rect" : [ 104.793935477734067, 365.916200913488865, 45.0, 20.0 ],
									"text" : "signal",
									"textcolor" : [ 0.396078431372549, 0.396078431372549, 0.396078431372549, 1.0 ]
								}

							}
, 							{
								"box" : 								{
									"bgcolor" : [ 0.873147666454315, 0.873318672180176, 0.873133420944214, 1.0 ],
									"floatoutput" : 1,
									"id" : "obj-385",
									"maxclass" : "dial",
									"mult" : 0.1,
									"needlecolor" : [ 0.427450980392157, 0.843137254901961, 1.0, 1.0 ],
									"numinlets" : 1,
									"numoutlets" : 1,
									"outlettype" : [ "float" ],
									"outlinecolor" : [ 0.501960784313725, 0.501960784313725, 0.501960784313725, 1.0 ],
									"parameter_enable" : 0,
									"patching_rect" : [ 50.0, 100.0, 40.0, 40.0 ],
									"size" : 100.0,
									"varname" : "off"
								}

							}
, 							{
								"box" : 								{
									"fontname" : "Arial",
									"fontsize" : 13.0,
									"id" : "obj-384",
									"maxclass" : "newobj",
									"numinlets" : 2,
									"numoutlets" : 1,
									"outlettype" : [ "signal" ],
									"patching_rect" : [ 50.0, 176.534544385969639, 45.0, 23.0 ],
									"text" : ">~ 0.1"
								}

							}
, 							{
								"box" : 								{
									"id" : "obj-381",
									"maxclass" : "newobj",
									"numinlets" : 2,
									"numoutlets" : 1,
									"outlettype" : [ "signal" ],
									"patching_rect" : [ 50.0, 145.427396990358829, 52.0, 22.0 ],
									"text" : "phasor~"
								}

							}
, 							{
								"box" : 								{
									"bgcolor" : [ 0.873147666454315, 0.873318672180176, 0.873133420944214, 1.0 ],
									"floatoutput" : 1,
									"id" : "obj-103",
									"maxclass" : "dial",
									"mult" : 0.01,
									"needlecolor" : [ 0.427450980392157, 0.843137254901961, 1.0, 1.0 ],
									"numinlets" : 1,
									"numoutlets" : 1,
									"outlettype" : [ "float" ],
									"outlinecolor" : [ 0.501960784313725, 0.501960784313725, 0.501960784313725, 1.0 ],
									"parameter_enable" : 0,
									"patching_rect" : [ 154.195956985156045, 346.996084071695805, 40.0, 40.0 ],
									"size" : 100.0,
									"varname" : "signal"
								}

							}
, 							{
								"box" : 								{
									"fontface" : 0,
									"fontname" : "Arial",
									"fontsize" : 12.0,
									"id" : "obj-347",
									"maxclass" : "number~",
									"mode" : 2,
									"numinlets" : 2,
									"numoutlets" : 2,
									"outlettype" : [ "signal", "float" ],
									"patching_rect" : [ 297.0, 251.795986130833626, 56.0, 22.0 ],
									"sig" : 0.0
								}

							}
, 							{
								"box" : 								{
									"bgcolor" : [ 0.873147666454315, 0.873318672180176, 0.873133420944214, 1.0 ],
									"blinkcolor" : [ 0.427450980392157, 0.843137254901961, 1.0, 1.0 ],
									"id" : "obj-344",
									"maxclass" : "button",
									"numinlets" : 1,
									"numoutlets" : 1,
									"outlettype" : [ "bang" ],
									"outlinecolor" : [ 0.501960784313725, 0.501960784313725, 0.501960784313725, 1.0 ],
									"parameter_enable" : 0,
									"patching_rect" : [ 274.000066518783569, 323.416200913488865, 24.0, 24.0 ]
								}

							}
, 							{
								"box" : 								{
									"id" : "obj-338",
									"maxclass" : "newobj",
									"numinlets" : 1,
									"numoutlets" : 2,
									"outlettype" : [ "bang", "bang" ],
									"patching_rect" : [ 274.000066518783569, 287.427396990358829, 42.0, 22.0 ],
									"text" : "edge~"
								}

							}
, 							{
								"box" : 								{
									"id" : "obj-138",
									"maxclass" : "newobj",
									"numinlets" : 2,
									"numoutlets" : 2,
									"outlettype" : [ "signal", "bang" ],
									"patching_rect" : [ 268.0, 163.288344539701939, 34.0, 22.0 ],
									"text" : "line~"
								}

							}
, 							{
								"box" : 								{
									"id" : "obj-149",
									"maxclass" : "newobj",
									"numinlets" : 2,
									"numoutlets" : 1,
									"outlettype" : [ "signal" ],
									"patching_rect" : [ 128.597978492578022, 530.896398343145847, 43.0, 22.0 ],
									"text" : "cycle~"
								}

							}
, 							{
								"box" : 								{
									"id" : "obj-273",
									"maxclass" : "newobj",
									"numinlets" : 2,
									"numoutlets" : 1,
									"outlettype" : [ "signal" ],
									"patching_rect" : [ 50.0, 412.927396990358829, 29.5, 22.0 ],
									"text" : "*~"
								}

							}
, 							{
								"box" : 								{
									"id" : "obj-271",
									"maxclass" : "newobj",
									"numinlets" : 2,
									"numoutlets" : 1,
									"outlettype" : [ "signal" ],
									"patching_rect" : [ 154.195956985156045, 487.33668676763773, 49.0, 22.0 ],
									"text" : "+~ 0.75"
								}

							}
, 							{
								"box" : 								{
									"id" : "obj-270",
									"maxclass" : "newobj",
									"numinlets" : 2,
									"numoutlets" : 1,
									"outlettype" : [ "signal" ],
									"patching_rect" : [ 154.195956985156045, 455.034544624388218, 47.0, 22.0 ],
									"text" : "*~ 0.25"
								}

							}
, 							{
								"box" : 								{
									"id" : "obj-261",
									"maxclass" : "newobj",
									"numinlets" : 2,
									"numoutlets" : 2,
									"outlettype" : [ "signal", "bang" ],
									"patching_rect" : [ 154.195956985156045, 426.034544624388218, 34.0, 22.0 ],
									"text" : "line~"
								}

							}
, 							{
								"box" : 								{
									"id" : "obj-259",
									"maxclass" : "newobj",
									"numinlets" : 2,
									"numoutlets" : 1,
									"outlettype" : [ "" ],
									"patching_rect" : [ 154.195956985156045, 396.626260615885258, 57.0, 22.0 ],
									"text" : "pack f 50"
								}

							}
, 							{
								"box" : 								{
									"id" : "obj-276",
									"maxclass" : "comment",
									"numinlets" : 1,
									"numoutlets" : 0,
									"patching_rect" : [ 499.710059702396393, 193.888936437666416, 54.0, 20.0 ],
									"text" : "release",
									"textcolor" : [ 0.396078431372549, 0.396078431372549, 0.396078431372549, 1.0 ]
								}

							}
, 							{
								"box" : 								{
									"bgcolor" : [ 0.873147666454315, 0.873318672180176, 0.873133420944214, 1.0 ],
									"id" : "obj-255",
									"maxclass" : "dial",
									"mult" : 0.1,
									"needlecolor" : [ 0.427450980392157, 0.843137254901961, 1.0, 1.0 ],
									"numinlets" : 1,
									"numoutlets" : 1,
									"outlettype" : [ "float" ],
									"outlinecolor" : [ 0.501960784313725, 0.501960784313725, 0.501960784313725, 1.0 ],
									"parameter_enable" : 0,
									"patching_rect" : [ 486.0, 136.427396990358829, 40.0, 40.0 ],
									"size" : 100001.0,
									"varname" : "adsrrelease"
								}

							}
, 							{
								"box" : 								{
									"bgcolor" : [ 0.873147666454315, 0.873318672180176, 0.873133420944214, 1.0 ],
									"floatoutput" : 1,
									"id" : "obj-251",
									"maxclass" : "dial",
									"mult" : 0.1,
									"needlecolor" : [ 0.427450980392157, 0.843137254901961, 1.0, 1.0 ],
									"numinlets" : 1,
									"numoutlets" : 1,
									"outlettype" : [ "float" ],
									"outlinecolor" : [ 0.501960784313725, 0.501960784313725, 0.501960784313725, 1.0 ],
									"parameter_enable" : 0,
									"patching_rect" : [ 377.0, 148.46782461553812, 40.0, 40.0 ],
									"size" : 10.0,
									"varname" : "adsrsustain"
								}

							}
, 							{
								"box" : 								{
									"bgcolor" : [ 0.873147666454315, 0.873318672180176, 0.873133420944214, 1.0 ],
									"id" : "obj-250",
									"maxclass" : "dial",
									"mult" : 0.1,
									"needlecolor" : [ 0.427450980392157, 0.843137254901961, 1.0, 1.0 ],
									"numinlets" : 1,
									"numoutlets" : 1,
									"outlettype" : [ "float" ],
									"outlinecolor" : [ 0.501960784313725, 0.501960784313725, 0.501960784313725, 1.0 ],
									"parameter_enable" : 0,
									"patching_rect" : [ 268.0, 113.427396990358829, 40.0, 40.0 ],
									"size" : 200001.0,
									"varname" : "adsrdecay"
								}

							}
, 							{
								"box" : 								{
									"bgcolor" : [ 0.873147666454315, 0.873318672180176, 0.873133420944214, 1.0 ],
									"floatoutput" : 1,
									"id" : "obj-247",
									"maxclass" : "dial",
									"min" : 0.1,
									"needlecolor" : [ 0.427450980392157, 0.843137254901961, 1.0, 1.0 ],
									"numinlets" : 1,
									"numoutlets" : 1,
									"outlettype" : [ "float" ],
									"outlinecolor" : [ 0.501960784313725, 0.501960784313725, 0.501960784313725, 1.0 ],
									"parameter_enable" : 0,
									"patching_rect" : [ 157.597978492578022, 107.927396990358829, 40.0, 40.0 ],
									"size" : 10000.0,
									"varname" : "adsrattack"
								}

							}
, 							{
								"box" : 								{
									"id" : "obj-246",
									"maxclass" : "newobj",
									"numinlets" : 2,
									"numoutlets" : 1,
									"outlettype" : [ "signal" ],
									"patching_rect" : [ 50.0, 506.503545977175236, 29.5, 22.0 ],
									"text" : "*~"
								}

							}
, 							{
								"box" : 								{
									"id" : "obj-155",
									"maxclass" : "newobj",
									"numinlets" : 2,
									"numoutlets" : 1,
									"outlettype" : [ "signal" ],
									"patching_rect" : [ 50.0, 449.859732545912266, 29.5, 22.0 ],
									"text" : "*~"
								}

							}
, 							{
								"box" : 								{
									"id" : "obj-152",
									"maxclass" : "newobj",
									"numinlets" : 5,
									"numoutlets" : 4,
									"outlettype" : [ "signal", "signal", "", "" ],
									"patching_rect" : [ 50.0, 220.930356480181217, 455.0, 22.0 ],
									"text" : "adsr~"
								}

							}
, 							{
								"box" : 								{
									"comment" : "",
									"id" : "obj-18",
									"index" : 1,
									"maxclass" : "inlet",
									"numinlets" : 0,
									"numoutlets" : 1,
									"outlettype" : [ "int" ],
									"patching_rect" : [ 50.000005038177505, 39.99999761553812, 30.0, 30.0 ],
									"tricolor" : [ 0.427450980392157, 0.843137254901961, 1.0, 1.0 ]
								}

							}
, 							{
								"box" : 								{
									"comment" : "",
									"id" : "obj-19",
									"index" : 2,
									"maxclass" : "inlet",
									"numinlets" : 0,
									"numoutlets" : 1,
									"outlettype" : [ "signal" ],
									"patching_rect" : [ 85.000005038177505, 39.99999761553812, 30.0, 30.0 ],
									"tricolor" : [ 0.427450980392157, 0.843137254901961, 1.0, 1.0 ]
								}

							}
, 							{
								"box" : 								{
									"comment" : "",
									"id" : "obj-20",
									"index" : 3,
									"maxclass" : "inlet",
									"numinlets" : 0,
									"numoutlets" : 1,
									"outlettype" : [ "signal" ],
									"patching_rect" : [ 120.000005038177505, 39.99999761553812, 30.0, 30.0 ],
									"tricolor" : [ 0.427450980392157, 0.843137254901961, 1.0, 1.0 ]
								}

							}
, 							{
								"box" : 								{
									"comment" : "",
									"id" : "obj-21",
									"index" : 4,
									"maxclass" : "inlet",
									"numinlets" : 0,
									"numoutlets" : 1,
									"outlettype" : [ "" ],
									"patching_rect" : [ 157.597967038177444, 39.99999761553812, 30.0, 30.0 ],
									"tricolor" : [ 0.427450980392157, 0.843137254901961, 1.0, 1.0 ]
								}

							}
, 							{
								"box" : 								{
									"comment" : "",
									"id" : "obj-22",
									"index" : 5,
									"maxclass" : "inlet",
									"numinlets" : 0,
									"numoutlets" : 1,
									"outlettype" : [ "" ],
									"patching_rect" : [ 268.000005038177505, 39.99999761553812, 30.0, 30.0 ],
									"tricolor" : [ 0.427450980392157, 0.843137254901961, 1.0, 1.0 ]
								}

							}
, 							{
								"box" : 								{
									"comment" : "",
									"id" : "obj-23",
									"index" : 6,
									"maxclass" : "inlet",
									"numinlets" : 0,
									"numoutlets" : 1,
									"outlettype" : [ "" ],
									"patching_rect" : [ 377.000005038177505, 39.99999761553812, 30.0, 30.0 ],
									"tricolor" : [ 0.427450980392157, 0.843137254901961, 1.0, 1.0 ]
								}

							}
, 							{
								"box" : 								{
									"comment" : "",
									"id" : "obj-24",
									"index" : 7,
									"maxclass" : "inlet",
									"numinlets" : 0,
									"numoutlets" : 1,
									"outlettype" : [ "" ],
									"patching_rect" : [ 485.999944038177546, 39.99999761553812, 30.0, 30.0 ],
									"tricolor" : [ 0.427450980392157, 0.843137254901961, 1.0, 1.0 ]
								}

							}
, 							{
								"box" : 								{
									"comment" : "",
									"id" : "obj-25",
									"index" : 1,
									"maxclass" : "outlet",
									"numinlets" : 1,
									"numoutlets" : 0,
									"patching_rect" : [ 50.000005038177505, 624.96782461553812, 30.0, 30.0 ],
									"tricolor" : [ 0.427450980392157, 0.843137254901961, 1.0, 1.0 ]
								}

							}
 ],
						"lines" : [ 							{
								"patchline" : 								{
									"destination" : [ "obj-259", 0 ],
									"source" : [ "obj-103", 0 ]
								}

							}
, 							{
								"patchline" : 								{
									"destination" : [ "obj-152", 2 ],
									"source" : [ "obj-138", 0 ]
								}

							}
, 							{
								"patchline" : 								{
									"destination" : [ "obj-155", 1 ],
									"midpoints" : [ 138.097978492578022, 562.896398343145847, 104.048989246289011, 562.896398343145847, 104.048989246289011, 438.859732545912266, 70.0, 438.859732545912266 ],
									"source" : [ "obj-149", 0 ]
								}

							}
, 							{
								"patchline" : 								{
									"destination" : [ "obj-273", 0 ],
									"source" : [ "obj-152", 0 ]
								}

							}
, 							{
								"patchline" : 								{
									"destination" : [ "obj-338", 0 ],
									"order" : 1,
									"source" : [ "obj-152", 1 ]
								}

							}
, 							{
								"patchline" : 								{
									"destination" : [ "obj-347", 0 ],
									"order" : 0,
									"source" : [ "obj-152", 1 ]
								}

							}
, 							{
								"patchline" : 								{
									"destination" : [ "obj-246", 0 ],
									"source" : [ "obj-155", 0 ]
								}

							}
, 							{
								"patchline" : 								{
									"destination" : [ "obj-385", 0 ],
									"source" : [ "obj-18", 0 ]
								}

							}
, 							{
								"patchline" : 								{
									"destination" : [ "obj-273", 1 ],
									"midpoints" : [ 94.500005038177505, 282.963697302948503, 70.0, 282.963697302948503 ],
									"source" : [ "obj-19", 0 ]
								}

							}
, 							{
								"patchline" : 								{
									"destination" : [ "obj-103", 0 ],
									"source" : [ "obj-195", 0 ]
								}

							}
, 							{
								"patchline" : 								{
									"destination" : [ "obj-246", 1 ],
									"midpoints" : [ 129.500005038177505, 287.751771796356707, 70.0, 287.751771796356707 ],
									"source" : [ "obj-20", 0 ]
								}

							}
, 							{
								"patchline" : 								{
									"destination" : [ "obj-247", 0 ],
									"source" : [ "obj-21", 0 ]
								}

							}
, 							{
								"patchline" : 								{
									"destination" : [ "obj-250", 0 ],
									"source" : [ "obj-22", 0 ]
								}

							}
, 							{
								"patchline" : 								{
									"destination" : [ "obj-251", 0 ],
									"source" : [ "obj-23", 0 ]
								}

							}
, 							{
								"patchline" : 								{
									"destination" : [ "obj-255", 0 ],
									"source" : [ "obj-24", 0 ]
								}

							}
, 							{
								"patchline" : 								{
									"destination" : [ "obj-25", 0 ],
									"source" : [ "obj-246", 0 ]
								}

							}
, 							{
								"patchline" : 								{
									"destination" : [ "obj-152", 1 ],
									"source" : [ "obj-247", 0 ]
								}

							}
, 							{
								"patchline" : 								{
									"destination" : [ "obj-138", 0 ],
									"midpoints" : [ 277.5, 159.44317651540041, 277.5, 159.44317651540041 ],
									"source" : [ "obj-250", 0 ]
								}

							}
, 							{
								"patchline" : 								{
									"destination" : [ "obj-152", 3 ],
									"source" : [ "obj-251", 0 ]
								}

							}
, 							{
								"patchline" : 								{
									"destination" : [ "obj-152", 4 ],
									"source" : [ "obj-255", 0 ]
								}

							}
, 							{
								"patchline" : 								{
									"destination" : [ "obj-261", 0 ],
									"source" : [ "obj-259", 0 ]
								}

							}
, 							{
								"patchline" : 								{
									"destination" : [ "obj-270", 0 ],
									"source" : [ "obj-261", 0 ]
								}

							}
, 							{
								"patchline" : 								{
									"destination" : [ "obj-271", 0 ],
									"source" : [ "obj-270", 0 ]
								}

							}
, 							{
								"patchline" : 								{
									"destination" : [ "obj-149", 1 ],
									"source" : [ "obj-271", 0 ]
								}

							}
, 							{
								"patchline" : 								{
									"destination" : [ "obj-155", 0 ],
									"source" : [ "obj-273", 0 ]
								}

							}
, 							{
								"patchline" : 								{
									"destination" : [ "obj-103", 0 ],
									"source" : [ "obj-3", 0 ]
								}

							}
, 							{
								"patchline" : 								{
									"destination" : [ "obj-344", 0 ],
									"source" : [ "obj-338", 0 ]
								}

							}
, 							{
								"patchline" : 								{
									"destination" : [ "obj-384", 0 ],
									"source" : [ "obj-381", 0 ]
								}

							}
, 							{
								"patchline" : 								{
									"destination" : [ "obj-152", 0 ],
									"source" : [ "obj-384", 0 ]
								}

							}
, 							{
								"patchline" : 								{
									"destination" : [ "obj-381", 0 ],
									"source" : [ "obj-385", 0 ]
								}

							}
 ]
					}
,
					"patching_rect" : [ 191.000000092198718, 818.266671359539032, 344.999999961822482, 22.0 ],
					"saved_object_attributes" : 					{
						"description" : "",
						"digest" : "",
						"globalpatchername" : "",
						"tags" : ""
					}
,
					"text" : "p envelope"
				}

			}
, 			{
				"box" : 				{
					"id" : "obj-17",
					"maxclass" : "newobj",
					"numinlets" : 5,
					"numoutlets" : 1,
					"outlettype" : [ "signal" ],
					"patcher" : 					{
						"fileversion" : 1,
						"appversion" : 						{
							"major" : 8,
							"minor" : 5,
							"revision" : 3,
							"architecture" : "x64",
							"modernui" : 1
						}
,
						"classnamespace" : "box",
						"rect" : [ 59.0, 106.0, 640.0, 480.0 ],
						"bglocked" : 0,
						"openinpresentation" : 0,
						"default_fontsize" : 12.0,
						"default_fontface" : 0,
						"default_fontname" : "Arial",
						"gridonopen" : 1,
						"gridsize" : [ 15.0, 15.0 ],
						"gridsnaponopen" : 1,
						"objectsnaponopen" : 1,
						"statusbarvisible" : 2,
						"toolbarvisible" : 1,
						"lefttoolbarpinned" : 0,
						"toptoolbarpinned" : 0,
						"righttoolbarpinned" : 0,
						"bottomtoolbarpinned" : 0,
						"toolbars_unpinned_last_save" : 0,
						"tallnewobj" : 0,
						"boxanimatetime" : 200,
						"enablehscroll" : 1,
						"enablevscroll" : 1,
						"devicewidth" : 0.0,
						"description" : "",
						"digest" : "",
						"tags" : "",
						"style" : "",
						"subpatcher_template" : "",
						"assistshowspatchername" : 0,
						"boxes" : [ 							{
								"box" : 								{
									"id" : "obj-209",
									"maxclass" : "newobj",
									"numinlets" : 1,
									"numoutlets" : 1,
									"outlettype" : [ "" ],
									"patching_rect" : [ 105.026524802049153, 287.540427625179291, 87.0, 22.0 ],
									"text" : "loadmess 57.5"
								}

							}
, 							{
								"box" : 								{
									"id" : "obj-141",
									"maxclass" : "comment",
									"numinlets" : 1,
									"numoutlets" : 0,
									"patching_rect" : [ 186.035682886838913, 106.540427625179291, 64.785726845264435, 20.0 ],
									"text" : "frequency",
									"textcolor" : [ 0.396078431372549, 0.396078431372549, 0.396078431372549, 1.0 ]
								}

							}
, 							{
								"box" : 								{
									"id" : "obj-142",
									"maxclass" : "comment",
									"numinlets" : 1,
									"numoutlets" : 0,
									"patching_rect" : [ 128.42854630947113, 106.540427625179291, 34.0, 20.0 ],
									"text" : "high",
									"textcolor" : [ 0.396078431372549, 0.396078431372549, 0.396078431372549, 1.0 ]
								}

							}
, 							{
								"box" : 								{
									"id" : "obj-143",
									"maxclass" : "comment",
									"numinlets" : 1,
									"numoutlets" : 0,
									"patching_rect" : [ 55.888329446315765, 106.540427625179291, 35.111670553684235, 20.0 ],
									"text" : "low",
									"textcolor" : [ 0.396078431372549, 0.396078431372549, 0.396078431372549, 1.0 ]
								}

							}
, 							{
								"box" : 								{
									"id" : "obj-144",
									"maxclass" : "comment",
									"numinlets" : 1,
									"numoutlets" : 0,
									"patching_rect" : [ 202.026524802049153, 289.540427625179291, 65.0, 20.0 ],
									"text" : "trapezoid",
									"textcolor" : [ 0.396078431372549, 0.396078431372549, 0.396078431372549, 1.0 ]
								}

							}
, 							{
								"box" : 								{
									"bgcolor" : [ 0.873147666454315, 0.873318672180176, 0.873133420944214, 1.0 ],
									"floatoutput" : 1,
									"id" : "obj-258",
									"maxclass" : "dial",
									"mult" : 0.01,
									"needlecolor" : [ 0.427450980392157, 0.843137254901961, 1.0, 1.0 ],
									"numinlets" : 1,
									"numoutlets" : 1,
									"outlettype" : [ "float" ],
									"outlinecolor" : [ 0.501960784313725, 0.501960784313725, 0.501960784313725, 1.0 ],
									"parameter_enable" : 0,
									"patching_rect" : [ 105.026524802049153, 316.538460552692413, 40.0, 40.0 ],
									"size" : 100.0,
									"varname" : "trapezoid"
								}

							}
, 							{
								"box" : 								{
									"id" : "obj-228",
									"maxclass" : "newobj",
									"numinlets" : 2,
									"numoutlets" : 1,
									"outlettype" : [ "signal" ],
									"patching_rect" : [ 51.0, 520.969001352787018, 29.5, 22.0 ],
									"text" : "*~"
								}

							}
, 							{
								"box" : 								{
									"id" : "obj-186",
									"maxclass" : "newobj",
									"numinlets" : 2,
									"numoutlets" : 1,
									"outlettype" : [ "signal" ],
									"patching_rect" : [ 81.026524802049153, 488.576148986816406, 43.0, 22.0 ],
									"text" : "cycle~"
								}

							}
, 							{
								"box" : 								{
									"id" : "obj-191",
									"maxclass" : "newobj",
									"numinlets" : 2,
									"numoutlets" : 1,
									"outlettype" : [ "signal" ],
									"patching_rect" : [ 105.026524802049153, 455.107147634029388, 49.0, 22.0 ],
									"text" : "+~ 0.75"
								}

							}
, 							{
								"box" : 								{
									"id" : "obj-199",
									"maxclass" : "newobj",
									"numinlets" : 2,
									"numoutlets" : 1,
									"outlettype" : [ "signal" ],
									"patching_rect" : [ 105.026524802049153, 427.027264475822449, 47.0, 22.0 ],
									"text" : "*~ 0.25"
								}

							}
, 							{
								"box" : 								{
									"id" : "obj-214",
									"maxclass" : "newobj",
									"numinlets" : 2,
									"numoutlets" : 2,
									"outlettype" : [ "signal", "bang" ],
									"patching_rect" : [ 105.026524802049153, 394.107147634029388, 34.0, 22.0 ],
									"text" : "line~"
								}

							}
, 							{
								"box" : 								{
									"id" : "obj-215",
									"maxclass" : "newobj",
									"numinlets" : 2,
									"numoutlets" : 1,
									"outlettype" : [ "" ],
									"patching_rect" : [ 105.026524802049153, 365.0, 57.0, 22.0 ],
									"text" : "pack f 50"
								}

							}
, 							{
								"box" : 								{
									"id" : "obj-286",
									"maxclass" : "comment",
									"numinlets" : 1,
									"numoutlets" : 0,
									"patching_rect" : [ 333.712120195732496, 100.0, 70.0, 20.0 ],
									"text" : "down",
									"textcolor" : [ 0.396078431372549, 0.396078431372549, 0.396078431372549, 1.0 ]
								}

							}
, 							{
								"box" : 								{
									"id" : "obj-285",
									"maxclass" : "comment",
									"numinlets" : 1,
									"numoutlets" : 0,
									"patching_rect" : [ 265.214273154735565, 100.0, 54.0, 20.0 ],
									"text" : "up",
									"textcolor" : [ 0.396078431372549, 0.396078431372549, 0.396078431372549, 1.0 ]
								}

							}
, 							{
								"box" : 								{
									"bgcolor" : [ 0.873147666454315, 0.873318672180176, 0.873133420944214, 1.0 ],
									"floatoutput" : 1,
									"id" : "obj-266",
									"maxclass" : "dial",
									"mult" : 0.1,
									"needlecolor" : [ 0.427450980392157, 0.843137254901961, 1.0, 1.0 ],
									"numinlets" : 1,
									"numoutlets" : 1,
									"outlettype" : [ "float" ],
									"outlinecolor" : [ 0.501960784313725, 0.501960784313725, 0.501960784313725, 1.0 ],
									"parameter_enable" : 0,
									"patching_rect" : [ 348.712120195732496, 128.5, 40.0, 40.0 ],
									"size" : 10.0,
									"varname" : "down"
								}

							}
, 							{
								"box" : 								{
									"bgcolor" : [ 0.873147666454315, 0.873318672180176, 0.873133420944214, 1.0 ],
									"floatoutput" : 1,
									"id" : "obj-265",
									"maxclass" : "dial",
									"mult" : 0.1,
									"needlecolor" : [ 0.427450980392157, 0.843137254901961, 1.0, 1.0 ],
									"numinlets" : 1,
									"numoutlets" : 1,
									"outlettype" : [ "float" ],
									"outlinecolor" : [ 0.501960784313725, 0.501960784313725, 0.501960784313725, 1.0 ],
									"parameter_enable" : 0,
									"patching_rect" : [ 272.214273154735565, 128.5, 40.0, 40.0 ],
									"size" : 10.0,
									"varname" : "up"
								}

							}
, 							{
								"box" : 								{
									"bgcolor" : [ 0.873147666454315, 0.873318672180176, 0.873133420944214, 1.0 ],
									"floatoutput" : 1,
									"id" : "obj-264",
									"maxclass" : "dial",
									"min" : -1.0,
									"mult" : 0.1,
									"needlecolor" : [ 0.427450980392157, 0.843137254901961, 1.0, 1.0 ],
									"numinlets" : 1,
									"numoutlets" : 1,
									"outlettype" : [ "float" ],
									"outlinecolor" : [ 0.501960784313725, 0.501960784313725, 0.501960784313725, 1.0 ],
									"parameter_enable" : 0,
									"patching_rect" : [ 125.42854630947113, 128.5, 40.0, 40.0 ],
									"size" : 20.0,
									"varname" : "high"
								}

							}
, 							{
								"box" : 								{
									"bgcolor" : [ 0.873147666454315, 0.873318672180176, 0.873133420944214, 1.0 ],
									"floatoutput" : 1,
									"id" : "obj-263",
									"maxclass" : "dial",
									"min" : -1.0,
									"mult" : 0.1,
									"needlecolor" : [ 0.427450980392157, 0.843137254901961, 1.0, 1.0 ],
									"numinlets" : 1,
									"numoutlets" : 1,
									"outlettype" : [ "float" ],
									"outlinecolor" : [ 0.501960784313725, 0.501960784313725, 0.501960784313725, 1.0 ],
									"parameter_enable" : 0,
									"patching_rect" : [ 51.0, 128.5, 40.0, 40.0 ],
									"size" : 20.0,
									"varname" : "low"
								}

							}
, 							{
								"box" : 								{
									"fontname" : "Arial",
									"fontsize" : 13.0,
									"id" : "obj-260",
									"maxclass" : "message",
									"numinlets" : 2,
									"numoutlets" : 1,
									"outlettype" : [ "" ],
									"patching_rect" : [ 125.42854630947113, 192.5, 56.0, 23.0 ],
									"text" : "hi $1"
								}

							}
, 							{
								"box" : 								{
									"fontname" : "Arial",
									"fontsize" : 13.0,
									"id" : "obj-262",
									"maxclass" : "message",
									"numinlets" : 2,
									"numoutlets" : 1,
									"outlettype" : [ "" ],
									"patching_rect" : [ 51.0, 192.5, 56.0, 23.0 ],
									"text" : "lo $1"
								}

							}
, 							{
								"box" : 								{
									"bgcolor" : [ 0.873147666454315, 0.873318672180176, 0.873133420944214, 1.0 ],
									"id" : "obj-256",
									"maxclass" : "dial",
									"mult" : 0.1,
									"needlecolor" : [ 0.427450980392157, 0.843137254901961, 1.0, 1.0 ],
									"numinlets" : 1,
									"numoutlets" : 1,
									"outlettype" : [ "float" ],
									"outlinecolor" : [ 0.501960784313725, 0.501960784313725, 0.501960784313725, 1.0 ],
									"parameter_enable" : 0,
									"patching_rect" : [ 198.42854630947113, 128.5, 40.0, 40.0 ],
									"size" : 10001.0,
									"varname" : "phasor"
								}

							}
, 							{
								"box" : 								{
									"id" : "obj-241",
									"maxclass" : "newobj",
									"numinlets" : 2,
									"numoutlets" : 1,
									"outlettype" : [ "signal" ],
									"patching_rect" : [ 198.42854630947113, 192.5, 52.0, 22.0 ],
									"text" : "phasor~"
								}

							}
, 							{
								"box" : 								{
									"id" : "obj-237",
									"maxclass" : "newobj",
									"numinlets" : 3,
									"numoutlets" : 1,
									"outlettype" : [ "signal" ],
									"patching_rect" : [ 50.0, 241.0, 463.42854630947113, 22.0 ],
									"text" : "trapezoid~ 0.1 0.9"
								}

							}
, 							{
								"box" : 								{
									"comment" : "",
									"id" : "obj-1",
									"index" : 1,
									"maxclass" : "inlet",
									"numinlets" : 0,
									"numoutlets" : 1,
									"outlettype" : [ "" ],
									"patching_rect" : [ 51.000023347648721, 40.000000177871698, 30.0, 30.0 ],
									"tricolor" : [ 0.427450980392157, 0.843137254901961, 1.0, 1.0 ]
								}

							}
, 							{
								"box" : 								{
									"comment" : "",
									"id" : "obj-4",
									"index" : 2,
									"maxclass" : "inlet",
									"numinlets" : 0,
									"numoutlets" : 1,
									"outlettype" : [ "" ],
									"patching_rect" : [ 125.428490347648676, 40.000000177871698, 30.0, 30.0 ],
									"tricolor" : [ 0.427450980392157, 0.843137254901961, 1.0, 1.0 ]
								}

							}
, 							{
								"box" : 								{
									"comment" : "",
									"id" : "obj-5",
									"index" : 3,
									"maxclass" : "inlet",
									"numinlets" : 0,
									"numoutlets" : 1,
									"outlettype" : [ "" ],
									"patching_rect" : [ 198.428490347648676, 40.000000177871698, 30.0, 30.0 ],
									"tricolor" : [ 0.427450980392157, 0.843137254901961, 1.0, 1.0 ]
								}

							}
, 							{
								"box" : 								{
									"comment" : "",
									"id" : "obj-8",
									"index" : 4,
									"maxclass" : "inlet",
									"numinlets" : 0,
									"numoutlets" : 1,
									"outlettype" : [ "" ],
									"patching_rect" : [ 272.214257347648527, 40.000000177871698, 30.0, 30.0 ],
									"tricolor" : [ 0.427450980392157, 0.843137254901961, 1.0, 1.0 ]
								}

							}
, 							{
								"box" : 								{
									"comment" : "",
									"id" : "obj-9",
									"index" : 5,
									"maxclass" : "inlet",
									"numinlets" : 0,
									"numoutlets" : 1,
									"outlettype" : [ "" ],
									"patching_rect" : [ 348.71206034764873, 40.000000177871698, 30.0, 30.0 ],
									"tricolor" : [ 0.427450980392157, 0.843137254901961, 1.0, 1.0 ]
								}

							}
, 							{
								"box" : 								{
									"comment" : "",
									"id" : "obj-12",
									"index" : 1,
									"maxclass" : "outlet",
									"numinlets" : 1,
									"numoutlets" : 0,
									"patching_rect" : [ 51.000023347648721, 602.969025177871686, 30.0, 30.0 ],
									"tricolor" : [ 0.427450980392157, 0.843137254901961, 1.0, 1.0 ]
								}

							}
 ],
						"lines" : [ 							{
								"patchline" : 								{
									"destination" : [ "obj-263", 0 ],
									"source" : [ "obj-1", 0 ]
								}

							}
, 							{
								"patchline" : 								{
									"destination" : [ "obj-228", 1 ],
									"source" : [ "obj-186", 0 ]
								}

							}
, 							{
								"patchline" : 								{
									"destination" : [ "obj-186", 1 ],
									"source" : [ "obj-191", 0 ]
								}

							}
, 							{
								"patchline" : 								{
									"destination" : [ "obj-191", 0 ],
									"source" : [ "obj-199", 0 ]
								}

							}
, 							{
								"patchline" : 								{
									"destination" : [ "obj-258", 0 ],
									"source" : [ "obj-209", 0 ]
								}

							}
, 							{
								"patchline" : 								{
									"destination" : [ "obj-199", 0 ],
									"source" : [ "obj-214", 0 ]
								}

							}
, 							{
								"patchline" : 								{
									"destination" : [ "obj-214", 0 ],
									"source" : [ "obj-215", 0 ]
								}

							}
, 							{
								"patchline" : 								{
									"destination" : [ "obj-12", 0 ],
									"source" : [ "obj-228", 0 ]
								}

							}
, 							{
								"patchline" : 								{
									"destination" : [ "obj-228", 0 ],
									"source" : [ "obj-237", 0 ]
								}

							}
, 							{
								"patchline" : 								{
									"destination" : [ "obj-237", 0 ],
									"midpoints" : [ 207.92854630947113, 232.5, 59.5, 232.5 ],
									"source" : [ "obj-241", 0 ]
								}

							}
, 							{
								"patchline" : 								{
									"destination" : [ "obj-241", 0 ],
									"source" : [ "obj-256", 0 ]
								}

							}
, 							{
								"patchline" : 								{
									"destination" : [ "obj-215", 0 ],
									"source" : [ "obj-258", 0 ]
								}

							}
, 							{
								"patchline" : 								{
									"destination" : [ "obj-237", 0 ],
									"midpoints" : [ 134.92854630947113, 223.0, 59.5, 223.0 ],
									"source" : [ "obj-260", 0 ]
								}

							}
, 							{
								"patchline" : 								{
									"destination" : [ "obj-237", 0 ],
									"source" : [ "obj-262", 0 ]
								}

							}
, 							{
								"patchline" : 								{
									"destination" : [ "obj-262", 0 ],
									"source" : [ "obj-263", 0 ]
								}

							}
, 							{
								"patchline" : 								{
									"destination" : [ "obj-260", 0 ],
									"source" : [ "obj-264", 0 ]
								}

							}
, 							{
								"patchline" : 								{
									"destination" : [ "obj-237", 1 ],
									"source" : [ "obj-265", 0 ]
								}

							}
, 							{
								"patchline" : 								{
									"destination" : [ "obj-237", 2 ],
									"midpoints" : [ 358.212120195732496, 232.75, 503.92854630947113, 232.75 ],
									"source" : [ "obj-266", 0 ]
								}

							}
, 							{
								"patchline" : 								{
									"destination" : [ "obj-264", 0 ],
									"source" : [ "obj-4", 0 ]
								}

							}
, 							{
								"patchline" : 								{
									"destination" : [ "obj-256", 0 ],
									"source" : [ "obj-5", 0 ]
								}

							}
, 							{
								"patchline" : 								{
									"destination" : [ "obj-265", 0 ],
									"source" : [ "obj-8", 0 ]
								}

							}
, 							{
								"patchline" : 								{
									"destination" : [ "obj-266", 0 ],
									"source" : [ "obj-9", 0 ]
								}

							}
 ]
					}
,
					"patching_rect" : [ 596.438127746139571, 551.087783276092523, 317.71211984808383, 22.0 ],
					"saved_object_attributes" : 					{
						"description" : "",
						"digest" : "",
						"globalpatchername" : "",
						"tags" : ""
					}
,
					"text" : "p trapezoid"
				}

			}
, 			{
				"box" : 				{
					"id" : "obj-208",
					"maxclass" : "newobj",
					"numinlets" : 1,
					"numoutlets" : 1,
					"outlettype" : [ "" ],
					"patching_rect" : [ 895.150247594223401, 509.210689961910248, 80.0, 22.0 ],
					"text" : "loadmess 8.8"
				}

			}
, 			{
				"box" : 				{
					"id" : "obj-207",
					"maxclass" : "newobj",
					"numinlets" : 1,
					"numoutlets" : 1,
					"outlettype" : [ "" ],
					"patching_rect" : [ 818.652400553226471, 462.628210723400116, 80.0, 22.0 ],
					"text" : "loadmess 10."
				}

			}
, 			{
				"box" : 				{
					"id" : "obj-205",
					"maxclass" : "newobj",
					"numinlets" : 1,
					"numoutlets" : 1,
					"outlettype" : [ "" ],
					"patching_rect" : [ 745.7941876701816, 509.210689961910248, 83.0, 22.0 ],
					"text" : "loadmess 800"
				}

			}
, 			{
				"box" : 				{
					"id" : "obj-204",
					"maxclass" : "newobj",
					"numinlets" : 1,
					"numoutlets" : 1,
					"outlettype" : [ "" ],
					"patching_rect" : [ 671.866673707962036, 478.210689961910248, 73.0, 22.0 ],
					"text" : "loadmess 0."
				}

			}
, 			{
				"box" : 				{
					"id" : "obj-202",
					"maxclass" : "newobj",
					"numinlets" : 1,
					"numoutlets" : 1,
					"outlettype" : [ "" ],
					"patching_rect" : [ 596.438127746139571, 520.628210723400116, 80.0, 22.0 ],
					"text" : "loadmess 19."
				}

			}
, 			{
				"box" : 				{
					"id" : "obj-198",
					"maxclass" : "newobj",
					"numinlets" : 1,
					"numoutlets" : 1,
					"outlettype" : [ "" ],
					"patching_rect" : [ 517.000000054021257, 754.049153029918671, 70.0, 22.0 ],
					"text" : "loadmess 0"
				}

			}
, 			{
				"box" : 				{
					"id" : "obj-197",
					"maxclass" : "newobj",
					"numinlets" : 1,
					"numoutlets" : 1,
					"outlettype" : [ "" ],
					"patching_rect" : [ 462.666666727050824, 719.866672873497009, 80.0, 22.0 ],
					"text" : "loadmess 7.5"
				}

			}
, 			{
				"box" : 				{
					"id" : "obj-192",
					"maxclass" : "newobj",
					"numinlets" : 1,
					"numoutlets" : 1,
					"outlettype" : [ "" ],
					"patching_rect" : [ 408.333333400080392, 781.466673791408539, 103.0, 22.0 ],
					"text" : "loadmess 105000"
				}

			}
, 			{
				"box" : 				{
					"id" : "obj-187",
					"maxclass" : "newobj",
					"numinlets" : 1,
					"numoutlets" : 1,
					"outlettype" : [ "" ],
					"patching_rect" : [ 354.197979524115397, 727.487782657146454, 73.0, 22.0 ],
					"text" : "loadmess 0."
				}

			}
, 			{
				"box" : 				{
					"id" : "obj-176",
					"maxclass" : "newobj",
					"numinlets" : 1,
					"numoutlets" : 1,
					"outlettype" : [ "" ],
					"patching_rect" : [ 191.000000092198718, 727.487782657146454, 70.0, 22.0 ],
					"text" : "loadmess 1"
				}

			}
, 			{
				"box" : 				{
					"id" : "obj-146",
					"maxclass" : "comment",
					"numinlets" : 1,
					"numoutlets" : 0,
					"patching_rect" : [ 191.000000092198718, 701.066670835018158, 26.0, 20.0 ],
					"text" : "on",
					"textcolor" : [ 0.396078431372549, 0.396078431372549, 0.396078431372549, 1.0 ]
				}

			}
, 			{
				"box" : 				{
					"id" : "obj-274",
					"maxclass" : "comment",
					"numinlets" : 1,
					"numoutlets" : 0,
					"patching_rect" : [ 486.000000054021257, 692.228212296962738, 50.0, 20.0 ],
					"text" : "sustain",
					"textcolor" : [ 0.396078431372549, 0.396078431372549, 0.396078431372549, 1.0 ]
				}

			}
, 			{
				"box" : 				{
					"id" : "obj-272",
					"maxclass" : "comment",
					"numinlets" : 1,
					"numoutlets" : 0,
					"patching_rect" : [ 408.333333400080392, 754.049153029918671, 45.0, 20.0 ],
					"text" : "decay",
					"textcolor" : [ 0.396078431372549, 0.396078431372549, 0.396078431372549, 1.0 ]
				}

			}
, 			{
				"box" : 				{
					"id" : "obj-16",
					"maxclass" : "newobj",
					"numinlets" : 1,
					"numoutlets" : 1,
					"outlettype" : [ "" ],
					"patching_rect" : [ 407.666666746139526, 373.666671276092529, 77.0, 22.0 ],
					"text" : "loadmess 63"
				}

			}
, 			{
				"box" : 				{
					"id" : "obj-15",
					"maxclass" : "newobj",
					"numinlets" : 1,
					"numoutlets" : 1,
					"outlettype" : [ "" ],
					"patching_rect" : [ 205.166666746139526, 373.666671276092529, 77.0, 22.0 ],
					"text" : "loadmess 55"
				}

			}
, 			{
				"box" : 				{
					"id" : "obj-14",
					"maxclass" : "newobj",
					"numinlets" : 1,
					"numoutlets" : 1,
					"outlettype" : [ "" ],
					"patching_rect" : [ 518.166666746139526, 212.666671276092529, 70.0, 22.0 ],
					"text" : "loadmess 7"
				}

			}
, 			{
				"box" : 				{
					"id" : "obj-13",
					"maxclass" : "newobj",
					"numinlets" : 1,
					"numoutlets" : 1,
					"outlettype" : [ "" ],
					"patching_rect" : [ 299.666666746139526, 190.666671276092529, 90.0, 22.0 ],
					"text" : "loadmess 3500"
				}

			}
, 			{
				"box" : 				{
					"id" : "obj-65",
					"maxclass" : "newobj",
					"numinlets" : 2,
					"numoutlets" : 1,
					"outlettype" : [ "signal" ],
					"patching_rect" : [ 310.166666746139526, 625.666670799255371, 36.0, 22.0 ],
					"text" : "!-~ 1."
				}

			}
, 			{
				"box" : 				{
					"id" : "obj-63",
					"maxclass" : "newobj",
					"numinlets" : 2,
					"numoutlets" : 1,
					"outlettype" : [ "signal" ],
					"patching_rect" : [ 357.866667032241821, 636.666670799255371, 29.5, 22.0 ],
					"text" : "*~"
				}

			}
, 			{
				"box" : 				{
					"id" : "obj-7",
					"maxclass" : "newobj",
					"numinlets" : 2,
					"numoutlets" : 1,
					"outlettype" : [ "signal" ],
					"patching_rect" : [ 299.666666746139526, 679.066671431064606, 29.5, 22.0 ],
					"text" : "*~"
				}

			}
, 			{
				"box" : 				{
					"id" : "obj-6",
					"maxclass" : "newobj",
					"numinlets" : 2,
					"numoutlets" : 2,
					"outlettype" : [ "signal", "bang" ],
					"patching_rect" : [ 518.166666746139526, 557.466670989990234, 34.0, 22.0 ],
					"text" : "line~"
				}

			}
, 			{
				"box" : 				{
					"id" : "obj-11",
					"maxclass" : "comment",
					"numinlets" : 1,
					"numoutlets" : 0,
					"patching_rect" : [ 346.866667032241821, 249.666671276092529, 51.5, 20.0 ],
					"text" : "carrier",
					"textcolor" : [ 0.501960784313725, 0.501960784313725, 0.501960784313725, 1.0 ]
				}

			}
, 			{
				"box" : 				{
					"bgcolor" : [ 0.873147666454315, 0.873318672180176, 0.873133420944214, 1.0 ],
					"id" : "obj-10",
					"maxclass" : "dial",
					"needlecolor" : [ 0.427450980392157, 0.843137254901961, 1.0, 1.0 ],
					"numinlets" : 1,
					"numoutlets" : 1,
					"outlettype" : [ "float" ],
					"outlinecolor" : [ 0.501960784313725, 0.501960784313725, 0.501960784313725, 1.0 ],
					"parameter_enable" : 0,
					"patching_rect" : [ 299.666666746139526, 239.666671276092529, 40.0, 40.0 ],
					"size" : 10001.0
				}

			}
, 			{
				"box" : 				{
					"id" : "obj-98",
					"maxclass" : "newobj",
					"numinlets" : 2,
					"numoutlets" : 2,
					"outlettype" : [ "signal", "bang" ],
					"patching_rect" : [ 299.666666746139526, 300.666673600673676, 48.0, 22.0 ],
					"text" : "line~ 0."
				}

			}
, 			{
				"box" : 				{
					"id" : "obj-80",
					"maxclass" : "comment",
					"numinlets" : 1,
					"numoutlets" : 0,
					"patching_rect" : [ 430.166666746139526, 423.666670799255371, 51.0, 20.0 ],
					"text" : "triangle ",
					"textcolor" : [ 0.501960784313725, 0.501960784313725, 0.501960784313725, 1.0 ]
				}

			}
, 			{
				"box" : 				{
					"id" : "obj-81",
					"maxclass" : "comment",
					"numinlets" : 1,
					"numoutlets" : 0,
					"patching_rect" : [ 205.166666746139526, 430.666671276092529, 49.0, 20.0 ],
					"text" : "square ",
					"textcolor" : [ 0.501960784313725, 0.501960784313725, 0.501960784313725, 1.0 ]
				}

			}
, 			{
				"box" : 				{
					"bgcolor" : [ 0.873147666454315, 0.873318672180176, 0.873133420944214, 1.0 ],
					"id" : "obj-82",
					"maxclass" : "dial",
					"needlecolor" : [ 0.427450980392157, 0.843137254901961, 1.0, 1.0 ],
					"numinlets" : 1,
					"numoutlets" : 1,
					"outlettype" : [ "float" ],
					"outlinecolor" : [ 0.501960784313725, 0.501960784313725, 0.501960784313725, 1.0 ],
					"parameter_enable" : 0,
					"patching_rect" : [ 383.166666746139526, 410.666671276092529, 40.0, 40.0 ],
					"size" : 101.0,
					"varname" : "triangle1"
				}

			}
, 			{
				"box" : 				{
					"bgcolor" : [ 0.873147666454315, 0.873318672180176, 0.873133420944214, 1.0 ],
					"id" : "obj-83",
					"maxclass" : "dial",
					"needlecolor" : [ 0.427450980392157, 0.843137254901961, 1.0, 1.0 ],
					"numinlets" : 1,
					"numoutlets" : 1,
					"outlettype" : [ "float" ],
					"outlinecolor" : [ 0.501960784313725, 0.501960784313725, 0.501960784313725, 1.0 ],
					"parameter_enable" : 0,
					"patching_rect" : [ 256.166666746139526, 410.666671276092529, 40.0, 40.0 ],
					"size" : 101.0,
					"varname" : "square1"
				}

			}
, 			{
				"box" : 				{
					"bgcolor" : [ 0.873147666454315, 0.873318672180176, 0.873133420944214, 1.0 ],
					"id" : "obj-84",
					"knobcolor" : [ 0.427450980392157, 0.843137254901961, 1.0, 1.0 ],
					"maxclass" : "gain~",
					"multichannelvariant" : 0,
					"numinlets" : 1,
					"numoutlets" : 2,
					"outlettype" : [ "signal", "" ],
					"parameter_enable" : 0,
					"patching_rect" : [ 356.666666746139526, 456.666671276092529, 22.0, 140.0 ],
					"size" : 100
				}

			}
, 			{
				"box" : 				{
					"bgcolor" : [ 0.873147666454315, 0.873318672180176, 0.873133420944214, 1.0 ],
					"id" : "obj-85",
					"knobcolor" : [ 0.427450980392157, 0.843137254901961, 1.0, 1.0 ],
					"maxclass" : "gain~",
					"multichannelvariant" : 0,
					"numinlets" : 1,
					"numoutlets" : 2,
					"outlettype" : [ "signal", "" ],
					"parameter_enable" : 0,
					"patching_rect" : [ 299.666666746139526, 456.666671276092529, 22.0, 140.0 ],
					"size" : 100
				}

			}
, 			{
				"box" : 				{
					"id" : "obj-87",
					"maxclass" : "newobj",
					"numinlets" : 3,
					"numoutlets" : 1,
					"outlettype" : [ "signal" ],
					"patching_rect" : [ 356.666666746139526, 379.000005543231964, 40.0, 22.0 ],
					"text" : "tri~"
				}

			}
, 			{
				"box" : 				{
					"id" : "obj-88",
					"maxclass" : "newobj",
					"numinlets" : 3,
					"numoutlets" : 1,
					"outlettype" : [ "signal" ],
					"patching_rect" : [ 299.666666746139526, 379.000005543231964, 40.0, 22.0 ],
					"text" : "rect~"
				}

			}
, 			{
				"box" : 				{
					"id" : "obj-90",
					"maxclass" : "comment",
					"numinlets" : 1,
					"numoutlets" : 0,
					"patching_rect" : [ 569.666666746139526, 271.666671276092529, 79.0, 20.0 ],
					"text" : "waveshape ",
					"textcolor" : [ 0.501960784313725, 0.501960784313725, 0.501960784313725, 1.0 ]
				}

			}
, 			{
				"box" : 				{
					"id" : "obj-91",
					"maxclass" : "newobj",
					"numinlets" : 2,
					"numoutlets" : 1,
					"outlettype" : [ "float" ],
					"patching_rect" : [ 518.166666746139526, 311.666671276092529, 32.0, 22.0 ],
					"text" : "/ 10."
				}

			}
, 			{
				"box" : 				{
					"bgcolor" : [ 0.873147666454315, 0.873318672180176, 0.873133420944214, 1.0 ],
					"id" : "obj-92",
					"maxclass" : "dial",
					"needlecolor" : [ 0.427450980392157, 0.843137254901961, 1.0, 1.0 ],
					"numinlets" : 1,
					"numoutlets" : 1,
					"outlettype" : [ "float" ],
					"outlinecolor" : [ 0.501960784313725, 0.501960784313725, 0.501960784313725, 1.0 ],
					"parameter_enable" : 0,
					"patching_rect" : [ 518.166666746139526, 261.666671276092529, 40.0, 40.0 ],
					"size" : 11.0,
					"varname" : "waveshape2"
				}

			}
, 			{
				"box" : 				{
					"fontname" : "Arial",
					"fontsize" : 12.0,
					"id" : "obj-94",
					"maxclass" : "message",
					"numinlets" : 2,
					"numoutlets" : 1,
					"outlettype" : [ "" ],
					"patching_rect" : [ 518.166666746139526, 368.666671276092529, 41.0, 22.0 ],
					"text" : "$1 10"
				}

			}
, 			{
				"box" : 				{
					"format" : 6,
					"id" : "obj-95",
					"maxclass" : "flonum",
					"numinlets" : 1,
					"numoutlets" : 2,
					"outlettype" : [ "", "bang" ],
					"parameter_enable" : 0,
					"patching_rect" : [ 518.166666746139526, 340.666671276092529, 44.0, 22.0 ],
					"style" : "default",
					"triscale" : 0.9
				}

			}
 ],
		"lines" : [ 			{
				"patchline" : 				{
					"destination" : [ "obj-98", 0 ],
					"source" : [ "obj-10", 0 ]
				}

			}
, 			{
				"patchline" : 				{
					"destination" : [ "obj-10", 0 ],
					"source" : [ "obj-13", 0 ]
				}

			}
, 			{
				"patchline" : 				{
					"destination" : [ "obj-92", 0 ],
					"source" : [ "obj-14", 0 ]
				}

			}
, 			{
				"patchline" : 				{
					"destination" : [ "obj-83", 0 ],
					"source" : [ "obj-15", 0 ]
				}

			}
, 			{
				"patchline" : 				{
					"destination" : [ "obj-82", 0 ],
					"source" : [ "obj-16", 0 ]
				}

			}
, 			{
				"patchline" : 				{
					"destination" : [ "obj-26", 1 ],
					"midpoints" : [ 605.938127746139571, 682.177229135757443, 254.833333419169122, 682.177229135757443 ],
					"source" : [ "obj-17", 0 ]
				}

			}
, 			{
				"patchline" : 				{
					"destination" : [ "obj-26", 0 ],
					"source" : [ "obj-176", 0 ]
				}

			}
, 			{
				"patchline" : 				{
					"destination" : [ "obj-3", 0 ],
					"order" : 1,
					"source" : [ "obj-18", 0 ]
				}

			}
, 			{
				"patchline" : 				{
					"destination" : [ "obj-4", 0 ],
					"order" : 0,
					"source" : [ "obj-18", 0 ]
				}

			}
, 			{
				"patchline" : 				{
					"destination" : [ "obj-26", 3 ],
					"source" : [ "obj-187", 0 ]
				}

			}
, 			{
				"patchline" : 				{
					"destination" : [ "obj-18", 0 ],
					"source" : [ "obj-19", 0 ]
				}

			}
, 			{
				"patchline" : 				{
					"destination" : [ "obj-26", 4 ],
					"source" : [ "obj-192", 0 ]
				}

			}
, 			{
				"patchline" : 				{
					"destination" : [ "obj-26", 5 ],
					"source" : [ "obj-197", 0 ]
				}

			}
, 			{
				"patchline" : 				{
					"destination" : [ "obj-26", 6 ],
					"source" : [ "obj-198", 0 ]
				}

			}
, 			{
				"patchline" : 				{
					"destination" : [ "obj-8", 0 ],
					"source" : [ "obj-2", 0 ]
				}

			}
, 			{
				"patchline" : 				{
					"destination" : [ "obj-18", 0 ],
					"source" : [ "obj-20", 0 ]
				}

			}
, 			{
				"patchline" : 				{
					"destination" : [ "obj-17", 0 ],
					"source" : [ "obj-202", 0 ]
				}

			}
, 			{
				"patchline" : 				{
					"destination" : [ "obj-17", 1 ],
					"source" : [ "obj-204", 0 ]
				}

			}
, 			{
				"patchline" : 				{
					"destination" : [ "obj-17", 2 ],
					"source" : [ "obj-205", 0 ]
				}

			}
, 			{
				"patchline" : 				{
					"destination" : [ "obj-17", 3 ],
					"source" : [ "obj-207", 0 ]
				}

			}
, 			{
				"patchline" : 				{
					"destination" : [ "obj-17", 4 ],
					"source" : [ "obj-208", 0 ]
				}

			}
, 			{
				"patchline" : 				{
					"destination" : [ "obj-18", 0 ],
					"source" : [ "obj-21", 0 ]
				}

			}
, 			{
				"patchline" : 				{
					"destination" : [ "obj-24", 0 ],
					"source" : [ "obj-23", 0 ]
				}

			}
, 			{
				"patchline" : 				{
					"destination" : [ "obj-10", 0 ],
					"source" : [ "obj-24", 0 ]
				}

			}
, 			{
				"patchline" : 				{
					"destination" : [ "obj-23", 0 ],
					"source" : [ "obj-25", 0 ]
				}

			}
, 			{
				"patchline" : 				{
					"destination" : [ "obj-18", 0 ],
					"source" : [ "obj-26", 0 ]
				}

			}
, 			{
				"patchline" : 				{
					"destination" : [ "obj-31", 0 ],
					"source" : [ "obj-29", 0 ]
				}

			}
, 			{
				"patchline" : 				{
					"destination" : [ "obj-33", 0 ],
					"source" : [ "obj-31", 0 ]
				}

			}
, 			{
				"patchline" : 				{
					"destination" : [ "obj-26", 0 ],
					"source" : [ "obj-33", 0 ]
				}

			}
, 			{
				"patchline" : 				{
					"destination" : [ "obj-37", 0 ],
					"source" : [ "obj-36", 0 ]
				}

			}
, 			{
				"patchline" : 				{
					"destination" : [ "obj-38", 0 ],
					"source" : [ "obj-37", 0 ]
				}

			}
, 			{
				"patchline" : 				{
					"destination" : [ "obj-10", 0 ],
					"source" : [ "obj-38", 0 ]
				}

			}
, 			{
				"patchline" : 				{
					"destination" : [ "obj-63", 1 ],
					"midpoints" : [ 527.666666746139526, 608.566670894622803, 377.866667032241821, 608.566670894622803 ],
					"order" : 0,
					"source" : [ "obj-6", 0 ]
				}

			}
, 			{
				"patchline" : 				{
					"destination" : [ "obj-65", 0 ],
					"midpoints" : [ 527.666666746139526, 607.566670894622803, 319.666666746139526, 607.566670894622803 ],
					"order" : 1,
					"source" : [ "obj-6", 0 ]
				}

			}
, 			{
				"patchline" : 				{
					"destination" : [ "obj-7", 1 ],
					"source" : [ "obj-65", 0 ]
				}

			}
, 			{
				"patchline" : 				{
					"destination" : [ "obj-26", 2 ],
					"source" : [ "obj-7", 0 ]
				}

			}
, 			{
				"patchline" : 				{
					"destination" : [ "obj-9", 0 ],
					"source" : [ "obj-8", 0 ]
				}

			}
, 			{
				"patchline" : 				{
					"destination" : [ "obj-84", 0 ],
					"source" : [ "obj-82", 0 ]
				}

			}
, 			{
				"patchline" : 				{
					"destination" : [ "obj-85", 0 ],
					"source" : [ "obj-83", 0 ]
				}

			}
, 			{
				"patchline" : 				{
					"destination" : [ "obj-63", 0 ],
					"source" : [ "obj-84", 0 ]
				}

			}
, 			{
				"patchline" : 				{
					"destination" : [ "obj-7", 0 ],
					"source" : [ "obj-85", 0 ]
				}

			}
, 			{
				"patchline" : 				{
					"destination" : [ "obj-84", 0 ],
					"midpoints" : [ 366.166666746139526, 406.666672110557556, 366.166666746139526, 406.666672110557556 ],
					"source" : [ "obj-87", 0 ]
				}

			}
, 			{
				"patchline" : 				{
					"destination" : [ "obj-85", 0 ],
					"midpoints" : [ 309.166666746139526, 406.000005424022675, 309.166666746139526, 406.000005424022675 ],
					"source" : [ "obj-88", 0 ]
				}

			}
, 			{
				"patchline" : 				{
					"destination" : [ "obj-26", 0 ],
					"source" : [ "obj-9", 0 ]
				}

			}
, 			{
				"patchline" : 				{
					"destination" : [ "obj-95", 0 ],
					"source" : [ "obj-91", 0 ]
				}

			}
, 			{
				"patchline" : 				{
					"destination" : [ "obj-91", 0 ],
					"source" : [ "obj-92", 0 ]
				}

			}
, 			{
				"patchline" : 				{
					"destination" : [ "obj-6", 0 ],
					"source" : [ "obj-94", 0 ]
				}

			}
, 			{
				"patchline" : 				{
					"destination" : [ "obj-94", 0 ],
					"source" : [ "obj-95", 0 ]
				}

			}
, 			{
				"patchline" : 				{
					"destination" : [ "obj-87", 0 ],
					"order" : 0,
					"source" : [ "obj-98", 0 ]
				}

			}
, 			{
				"patchline" : 				{
					"destination" : [ "obj-88", 0 ],
					"order" : 1,
					"source" : [ "obj-98", 0 ]
				}

			}
 ],
		"styles" : [ 			{
				"name" : "rnbodefault",
				"default" : 				{
					"accentcolor" : [ 0.343034118413925, 0.506230533123016, 0.86220508813858, 1.0 ],
					"bgcolor" : [ 0.031372549019608, 0.125490196078431, 0.211764705882353, 1.0 ],
					"bgfillcolor" : 					{
						"angle" : 270.0,
						"autogradient" : 0.0,
						"color" : [ 0.031372549019608, 0.125490196078431, 0.211764705882353, 1.0 ],
						"color1" : [ 0.031372549019608, 0.125490196078431, 0.211764705882353, 1.0 ],
						"color2" : [ 0.263682, 0.004541, 0.038797, 1.0 ],
						"proportion" : 0.39,
						"type" : "color"
					}
,
					"color" : [ 0.929412, 0.929412, 0.352941, 1.0 ],
					"elementcolor" : [ 0.357540726661682, 0.515565991401672, 0.861786782741547, 1.0 ],
					"fontname" : [ "Lato" ],
					"fontsize" : [ 12.0 ],
					"stripecolor" : [ 0.258338063955307, 0.352425158023834, 0.511919498443604, 1.0 ]
				}
,
				"parentstyle" : "",
				"multi" : 0
			}
, 			{
				"name" : "rnbolight",
				"default" : 				{
					"accentcolor" : [ 0.443137254901961, 0.505882352941176, 0.556862745098039, 1.0 ],
					"bgcolor" : [ 0.796078431372549, 0.862745098039216, 0.925490196078431, 1.0 ],
					"bgfillcolor" : 					{
						"angle" : 270.0,
						"autogradient" : 0.0,
						"color" : [ 0.835294117647059, 0.901960784313726, 0.964705882352941, 1.0 ],
						"color1" : [ 0.031372549019608, 0.125490196078431, 0.211764705882353, 1.0 ],
						"color2" : [ 0.263682, 0.004541, 0.038797, 1.0 ],
						"proportion" : 0.39,
						"type" : "color"
					}
,
					"clearcolor" : [ 0.898039, 0.898039, 0.898039, 1.0 ],
					"color" : [ 0.815686274509804, 0.509803921568627, 0.262745098039216, 1.0 ],
					"editing_bgcolor" : [ 0.898039, 0.898039, 0.898039, 1.0 ],
					"elementcolor" : [ 0.337254901960784, 0.384313725490196, 0.462745098039216, 1.0 ],
					"fontname" : [ "Lato" ],
					"locked_bgcolor" : [ 0.898039, 0.898039, 0.898039, 1.0 ],
					"stripecolor" : [ 0.309803921568627, 0.698039215686274, 0.764705882352941, 1.0 ],
					"textcolor_inverse" : [ 0.0, 0.0, 0.0, 1.0 ]
				}
,
				"parentstyle" : "",
				"multi" : 0
			}
, 			{
				"name" : "rnbomonokai",
				"default" : 				{
					"accentcolor" : [ 0.501960784313725, 0.501960784313725, 0.501960784313725, 1.0 ],
					"bgcolor" : [ 0.0, 0.0, 0.0, 1.0 ],
					"bgfillcolor" : 					{
						"angle" : 270.0,
						"autogradient" : 0.0,
						"color" : [ 0.0, 0.0, 0.0, 1.0 ],
						"color1" : [ 0.031372549019608, 0.125490196078431, 0.211764705882353, 1.0 ],
						"color2" : [ 0.263682, 0.004541, 0.038797, 1.0 ],
						"proportion" : 0.39,
						"type" : "color"
					}
,
					"clearcolor" : [ 0.976470588235294, 0.96078431372549, 0.917647058823529, 1.0 ],
					"color" : [ 0.611764705882353, 0.125490196078431, 0.776470588235294, 1.0 ],
					"editing_bgcolor" : [ 0.976470588235294, 0.96078431372549, 0.917647058823529, 1.0 ],
					"elementcolor" : [ 0.749019607843137, 0.83921568627451, 1.0, 1.0 ],
					"fontname" : [ "Lato" ],
					"locked_bgcolor" : [ 0.976470588235294, 0.96078431372549, 0.917647058823529, 1.0 ],
					"stripecolor" : [ 0.796078431372549, 0.207843137254902, 1.0, 1.0 ],
					"textcolor" : [ 0.129412, 0.129412, 0.129412, 1.0 ]
				}
,
				"parentstyle" : "",
				"multi" : 0
			}
 ]
	}

}
